# AST/ASF file generated using VICON BodyLanguage
# -----------------------------------------------
:version 1.10
:name VICON
:units
  mass 1.0
  length 0.45
  angle deg
:documentation
   .ast/.asf automatically generated from VICON data using
   VICON BodyBuilder and BodyLanguage model FoxedUp or BRILLIANT.MOD
:root
   order TX TY TZ RX RY RZ
   axis XYZ
   position 0 0 0  
   orientation 0 0 0 
:bonedata
  begin
     id 1 
     name lhipjoint
     direction 0.693937 -0.600361 0.397515 
     length 2.37164 
     axis 0 0 0  XYZ
  end
  begin
     id 2 
     name lfemur
     direction 0.34202 -0.939693 0  
     length 6.18497  
     axis 0 0 20  XYZ
    dof rx ry rz
    limits (-160.0 20.0)
           (-70.0 70.0)
           (-60.0 70.0)
  end
  begin
     id 3 
     name ltibia
     direction 0.34202 -0.939693 0   
     length 6.91601   
     axis 0 0 20   XYZ
    dof rx
    limits (-10.0 170.0)
  end
  begin
     id 4 
     name lfoot
     direction 0.0978718 -0.2689 0.958182   
     length 1.81453   
     axis -90 7.62852e-016 20   XYZ
    dof rx rz
    limits (-45.0 90.0)
           (-70.0 20.0)
  end
  begin
     id 5 
     name ltoes
     direction 1.53569e-011 -4.21951e-011 1   
     length 0.912052   
     axis -90 7.62852e-016 20   XYZ
    dof rx
    limits (-90.0 20.0)
  end
  begin
     id 6 
     name rhipjoint
     direction -0.643996 -0.637876 0.422354   
     length 2.23216  
     axis 0 0 0  XYZ 
  end
  begin
     id 7 
     name rfemur
     direction -0.34202 -0.939693 0   
     length 6.15404   
     axis 0 0 -20   XYZ
    dof rx ry rz
    limits (-160.0 20.0)
           (-70.0 70.0)
           (-70.0 60.0)
  end
  begin
     id 8 
     name rtibia
     direction -0.34202 -0.939693 0   
     length 6.86744   
     axis 0 0 -20   XYZ
    dof rx
    limits (-10.0 170.0)
 end
 begin
     id 9 
     name rfoot
     direction -0.118701 -0.326127 0.937844   
     length 1.9243  
     axis -90 -7.62852e-016 -20   XYZ
    dof rx rz
    limits (-45.0 90.0)
           (-20.0 70.0)
  end
  begin
     id 10 
     name rtoes
     direction -1.5356e-011 -4.2181e-011 1   
     length 0.958865   
     axis -90 -7.62852e-016 -20   XYZ
    dof rx
    limits (-90.0 20.0)
  end
  begin
     id 11 
     name lowerback
     direction 0.0310826 0.968686 -0.246334   
     length 2.00021   
     axis 0 0 0   XYZ
    dof rx ry rz
    limits (-20.0 45.0)
           (-30.0 30.0)
           (-30.0 30.0)
  end
  begin
     id 12 
     name upperback
     direction -0.0152834 0.999474 -0.0286152   
     length 2.03728   
     axis 0 0 0   XYZ
    dof rx ry rz
    limits (-20.0 45.0)
           (-30.0 30.0)
           (-30.0 30.0)
  end
  begin
     id 13 
     name thorax
     direction -0.0323701 0.996236 0.0804149   
     length 2.16   
     axis 0 0 0   XYZ
    dof rx ry rz
    limits (-20.0 45.0)
           (-30.0 30.0)
           (-30.0 30.0)
  end
  begin
     id 14 
     name lowerneck
     direction 0.0307935 0.982251 0.185027   
     length 1.43558   
     axis 0 0 0   XYZ
    dof rx ry rz
    limits (-20.0 45.0)
           (-30.0 30.0)
           (-30.0 30.0)
  end
  begin
     id 15 
     name upperneck
     direction -0.0927153 0.994775 0.0427454   
     length 1.44603   
     axis 0 0 0   XYZ
    dof rx ry rz
    limits (-20.0 45.0)
           (-30.0 30.0)
           (-30.0 30.0)
  end
  begin
     id 16
     name head
     direction -0.0341265 0.999406 -0.00472033  
     length 1.45931  
     axis 0 0 0   XYZ
    dof rx ry rz
    limits (-20.0 45.0)
           (-30.0 30.0)
           (-30.0 30.0)
  end
  begin
     id 17 
     name lclavicle
     direction 0.820755 0.555306 -0.134151  
     length 2.66075  
     axis 0 0 0   XYZ
    dof ry rz
    limits (-20.0 10.0)
           (0.0 20.0)
  end
  begin
     id 18 
     name lhumerus
     direction 1 -4.48971e-011 5.24853e-027   
     length 5.0546   
     axis -180 -30 -90   XYZ
    dof rx ry rz
    limits (-60.0 90.0)
           (-90.0 90.0)
           (-90.0 90.0)
  end
  begin
     id 19
     name lradius
     direction 1 -4.48971e-011 2.76575e-028   
     length 3.39013   
     axis -180 -30 -90   XYZ
    dof rx
    limits (-10.0 170.0)
  end
  begin
     id 20
     name lwrist
     direction 1 -4.48939e-011 -2.27826e-027   
     length 1.69507   
     axis 2.17013e-015 90 90   XYZ
    dof ry
    limits (-180.0 0.0)
 end
  begin
     id 21 
     name lhand
     direction 1 -4.49009e-011 -4.55652e-027   
     length 0.572425   
     axis 2.90745e-015 90 90   XYZ
    dof rx rz
    limits (-90.0 90.0)
           (-45.0 45.0)
  end
  begin
     id 22 
     name lfingers
     direction 1 -4.48955e-011 -9.11303e-027   
     length 0.461504   
     axis 5.81489e-015 90 90   XYZ
    dof rx
    limits (0.0 90.0)
  end
  begin
     id 23
     name lthumb
     direction 0.707107 -6.34929e-011 0.707107   
     length 0.66263   
     axis -90 45 2.85299e-015   XYZ
    dof rx rz
    limits (-45.0 45.0)
           (-45.0 45.0)
  end
  begin
     id 24 
     name rclavicle
     direction -0.754477 0.632921 -0.173712   
     length 2.73081  
     axis 0 0 0   XYZ 
    dof ry rz
    limits (-10.0 20.0)
           (-20.0 0.0)
  end
  begin
     id 25 
     name rhumerus
     direction -1 -4.48969e-011 5.1496e-027  
     length 5.0701   
     axis -180 30 90   XYZ
    dof rx ry rz
    limits (-90.0 60.0)
           (-90.0 90.0)
           (-90.0 90.0)
  end
  begin
     id 26 
     name rradius
     direction -1 -4.48967e-011 -7.15624e-028   
     length 3.14957   
     axis -180 30 90   XYZ
    dof rx
    limits (-10.0 170.0)
  end
  begin
     id 27 
     name rwrist
     direction -1 -4.48938e-011 -2.27826e-027   
     length 1.57479   
     axis 2.17013e-015 -90 -90   XYZ
    dof ry
    limits (-180.0 0.0)
  end
  begin
     id 28
     name rhand
     direction -1 -4.49008e-011 -4.55652e-027   
     length 0.718191   
     axis 2.90745e-015 -90 -90   XYZ
    dof rx rz
    limits (-90.0 90.0)
           (-45.0 45.0)
  end
  begin
     id 29
     name rfingers
     direction -1 -4.48953e-011 -9.11303e-027   
     length 0.579024   
     axis 5.81489e-015 -90 -90   XYZ
    dof rx
    limits (0.0 90.0)
  end
  begin
     id 30
     name rthumb
     direction -0.707107 -6.34937e-011 0.707107   
     length 0.831366   
     axis -90 -45 -2.85299e-015   XYZ
    dof rx rz
    limits (-45.0 45.0)
           (-45.0 45.0)
  end
:hierarchy
  begin
    root lhipjoint rhipjoint lowerback
    lhipjoint lfemur
    lfemur ltibia
    ltibia lfoot
    lfoot ltoes
    rhipjoint rfemur
    rfemur rtibia
    rtibia rfoot
    rfoot rtoes
    lowerback upperback
    upperback thorax
    thorax lowerneck lclavicle rclavicle
    lowerneck upperneck
    upperneck head
    lclavicle lhumerus
    lhumerus lradius
    lradius lwrist
    lwrist lhand lthumb
    lhand lfingers
    rclavicle rhumerus
    rhumerus rradius
    rradius rwrist
    rwrist rhand rthumb
    rhand rfingers
  end

#!OML:ASF H:\Male1\Project 1\Capture day 1\Session 1\Male1.ASF
:FULLY-SPECIFIED
:DEGREES
1
root 8.99695 15.4765 1.52049 -0.00974749 86.4301 2.37641
lowerback 3.80517 1.97348 -0.232483
upperback 2.78157 2.68161 -1.43256
thorax 0.781 1.37421 -1.41828
lowerneck -8.48807 3.98268 7.27801
upperneck 12.1926 4.87076 -3.08039
head 5.32303 2.53816 -1.79107
rclavicle 5.91881e-014 -2.90226e-014
rhumerus -39.1274 -12.5443 -80.3369
rradius 32.5901
rwrist -1.56441
rhand -4.34433 3.60422
rfingers 7.12502
rthumb 21.4233 -25.2313
lclavicle 5.91881e-014 -2.90226e-014
lhumerus -29.3187 7.22839 81.8784
lradius 26.5443
lwrist -8.59589
lhand -17.0361 11.3446
lfingers 7.12502
lthumb 9.20054 41.1239
rfemur -2.89241 18.1607 24.1162
rtibia 24.1519
rfoot -26.3881 -29.4426
rtoes -24.7193
lfemur -2.96134 -19.4129 -23.2837
ltibia 24.5904
lfoot -24.0426 25.7959
ltoes 1.42203
2
root 8.99777 15.477 1.51883 -0.4851 86.4286 1.86071
lowerback 3.77966 1.96934 -0.158336
upperback 2.75712 2.67726 -1.43346
thorax 0.773429 1.37262 -1.46004
lowerneck -8.51317 3.96595 7.22055
upperneck 12.3 4.85042 -3.02592
head 5.35684 2.53082 -1.7653
rclavicle -2.74323e-014 1.82882e-014
rhumerus -39.1073 -12.2246 -80.5931
rradius 32.63
rwrist -2.37301
rhand -5.07119 3.35601
rfingers 7.12502
rthumb 20.725 -25.5573
lclavicle -2.74323e-014 1.82882e-014
lhumerus -29.2804 7.24928 81.9036
lradius 26.5795
lwrist -8.51104
lhand -17.0885 11.0578
lfingers 7.12502
lthumb 9.14992 40.8393
rfemur -2.90312 18.0954 24.1246
rtibia 24.1118
rfoot -26.4068 -29.4276
rtoes -24.7382
lfemur -3.01638 -19.4312 -23.2462
ltibia 24.623
lfoot -24.0224 25.8011
ltoes 1.38428
3
root 8.99795 15.4776 1.51781 -1.38955 86.3954 0.949844
lowerback 3.81889 1.9673 -0.0836804
upperback 2.72652 2.67489 -1.41868
thorax 0.72274 1.37172 -1.4888
lowerneck -8.49703 3.96699 7.15812
upperneck 12.364 4.85693 -2.97158
head 5.37147 2.53616 -1.73765
rclavicle 2.26615e-014 -3.57812e-015
rhumerus -39.1664 -11.9255 -80.8178
rradius 32.7562
rwrist -3.17837
rhand -5.68933 3.13695
rfingers 7.12502
rthumb 20.131 -25.8401
lclavicle 2.26615e-014 -3.57812e-015
lhumerus -29.2512 7.26405 81.9173
lradius 26.6216
lwrist -8.45341
lhand -17.0047 11.195
lfingers 7.12502
lthumb 9.23084 40.9729
rfemur -2.87077 18.0938 24.1753
rtibia 24.0538
rfoot -26.3357 -29.3882
rtoes -24.6222
lfemur -3.04002 -19.4301 -23.1898
ltibia 24.6699
lfoot -24.0021 25.8265
ltoes 1.01919
4
root 8.99803 15.4776 1.5184 -2.55605 86.3758 -0.205718
lowerback 3.85644 1.96409 -0.0197088
upperback 2.72972 2.67194 -1.39313
thorax 0.706681 1.37081 -1.49968
lowerneck -8.53248 3.98786 7.1064
upperneck 12.3943 4.88327 -2.91944
head 5.38572 2.55012 -1.7101
rclavicle -9.74045e-015 -5.56597e-015
rhumerus -39.2295 -11.6907 -81.0115
rradius 32.9189
rwrist -4.0031
rhand -6.27146 3.01926
rfingers 7.12502
rthumb 19.5714 -26.0156
lclavicle -9.74045e-015 -5.56597e-015
lhumerus -29.2111 7.21531 81.9631
lradius 26.708
lwrist -8.44415
lhand -16.9111 11.5241
lfingers 7.12502
lthumb 9.32115 41.298
rfemur -2.83201 18.1756 24.2735
rtibia 24.0133
rfoot -26.2479 -29.5103
rtoes -24.6021
lfemur -3.04293 -19.3789 -23.1047
ltibia 24.697
lfoot -23.9178 25.852
ltoes 0.542456
5
root 8.99935 15.478 1.51854 -2.66358 86.3405 -0.306793
lowerback 3.84216 1.96181 -0.0210928
upperback 2.76505 2.67015 -1.38717
thorax 0.750541 1.37043 -1.49135
lowerneck -8.62128 4.01302 7.07861
upperneck 12.41 4.90982 -2.88945
head 5.4056 2.56273 -1.69241
rclavicle 2.01269e-014 -1.19271e-015
rhumerus -39.1799 -11.4139 -81.249
rradius 33.012
rwrist -4.91706
rhand -6.95948 2.93056
rfingers 7.12502
rthumb 18.9098 -26.1703
lclavicle 2.01269e-014 -1.19271e-015
lhumerus -29.1535 7.13959 82.0281
lradius 26.8301
lwrist -8.42195
lhand -16.7899 11.6059
lfingers 7.12502
lthumb 9.43803 41.3746
rfemur -2.80315 18.2058 24.2885
rtibia 23.9544
rfoot -26.2596 -29.5412
rtoes -24.6972
lfemur -3.05799 -19.3293 -23.0965
ltibia 24.7421
lfoot -23.8542 25.92
ltoes 0.426293
